<?xml version="1.0" standalone="no"?><!DOCTYPE svg PUBLIC "-//W3C//DTD SVG 1.1//EN" "http://www.w3.org/Graphics/SVG/1.1/DTD/svg11.dtd"><svg t="1647265900120" class="icon" viewBox="0 0 1024 1024" version="1.1" xmlns="http://www.w3.org/2000/svg" p-id="3713" width="48" height="48" xmlns:xlink="http://www.w3.org/1999/xlink"><defs><style type="text/css"></style></defs><path d="M290.407416 445.90107a147.4 124.8 50.246 1 0-191.891778 159.617371 147.4 124.8 50.246 1 0 191.891778-159.617371Z" fill="#A37454" p-id="3714"></path><path d="M216.4 669.2c-43.2 0-89-21.1-121.8-60.5-25.9-31.2-40-69.1-39.7-106.7 0.3-38 15.3-71.1 42.1-93.4 26.8-22.3 62.1-30.9 99.5-24.3 37.1 6.5 71.8 27.3 97.7 58.4 25.9 31.2 40 69.1 39.7 106.7-0.3 38-15.3 71.1-42.1 93.4-21.4 17.9-47.9 26.4-75.4 26.4z m-114.1-66.8c50.2 60.3 132.4 75.1 183.2 32.8 24.5-20.4 38.1-50.8 38.4-85.8 0.3-35.3-13-70.9-37.4-100.2-24.4-29.3-57-48.9-91.8-55-34.5-6.1-66.9 1.8-91.4 22.2s-38.1 50.8-38.4 85.8c-0.3 35.2 13 70.8 37.4 100.2z" fill="" p-id="3715"></path><path d="M256.349701 474.230595a95 80.5 50.246 1 0-123.776348 102.958321 95 80.5 50.246 1 0 123.776348-102.958321Z" fill="#FFD4DC" p-id="3716"></path><path d="M735.70497 445.90464a124.8 147.4 39.754 1 0 191.891779 159.617372 124.8 147.4 39.754 1 0-191.891779-159.617372Z" fill="#A37454" p-id="3717"></path><path d="M809.6 669.2c-27.6 0-54-8.6-75.5-26.4-26.8-22.3-41.7-55.5-42.1-93.4-0.3-37.7 13.8-75.6 39.7-106.7 25.9-31.2 60.6-51.9 97.7-58.4 37.4-6.6 72.7 2.1 99.5 24.3 26.8 22.3 41.7 55.5 42.1 93.4 0.3 37.7-13.8 75.6-39.7 106.7l-3.8-3.2 3.8 3.2c-32.7 39.5-78.5 60.5-121.7 60.5z m44-277.1c-7.3 0-14.8 0.7-22.4 2-34.8 6.1-67.3 25.6-91.8 55C715 478.4 701.7 514 702 549.3c0.3 35 14 65.5 38.4 85.8 50.8 42.3 133 27.5 183.2-32.8C948 573 961.3 537.4 961 502.1c-0.3-35-14-65.5-38.4-85.8-19.1-15.9-43-24.2-69-24.2z" fill="" p-id="3718"></path><path d="M769.762686 474.234166a80.5 95 39.754 1 0 123.776347 102.958321 80.5 95 39.754 1 0-123.776347-102.958321Z" fill="#FFD4DC" p-id="3719"></path><path d="M514.2 519.8m-300 0a300 300 0 1 0 600 0 300 300 0 1 0-600 0Z" fill="#FFEBEB" p-id="3720"></path><path d="M514.2 824.8c-81.5 0-158.1-31.7-215.7-89.3s-89.3-134.2-89.3-215.7 31.7-158.1 89.3-215.7c57.6-57.6 134.2-89.3 215.7-89.3s158.1 31.7 215.7 89.3c57.6 57.6 89.3 134.2 89.3 215.7s-31.7 158.1-89.3 215.7-134.3 89.3-215.7 89.3z m0-600c-162.7 0-295 132.3-295 295s132.3 295 295 295 295-132.3 295-295-132.4-295-295-295z" fill="" p-id="3721"></path><path d="M491.8 570.9c-3.2 0-5.3-0.2-5.6-0.2l0.6-7-0.3 3.5 0.3-3.5c7.9 0.7 29.1 0.1 34.5-10.8v-11.8h7v13.3l-0.3 0.7c-6 14-26.2 15.8-36.2 15.8z" fill="" p-id="3722"></path><path d="M557.7 571.2c-10 0-30.2-1.8-36.2-15.8l6.4-2.7c4.9 11.5 26.7 12.1 34.7 11.4l0.6 7c-0.2 0-2.3 0.1-5.5 0.1z" fill="" p-id="3723"></path><path d="M520.3 534.4l2.9 2.5c0.7 0.6 2.4 0.6 3.1 0l2.9-2.5c0.7-0.6-0.2-1.4-1.6-1.4h-5.8c-1.4 0.1-2.2 0.8-1.5 1.4z" fill="" p-id="3724"></path><path d="M524.8 540.9c-1.4 0-2.8-0.4-3.9-1.3l-2.9-2.5c-1.3-1.1-1.8-2.9-1.2-4.5 0.7-1.9 2.6-3 5.1-3h5.8c2.4 0 4.4 1.2 5.1 3 0.6 1.6 0.1 3.3-1.2 4.5l-2.9 2.5c-1.1 0.9-2.5 1.3-3.9 1.3z" fill="" p-id="3725"></path><path d="M279.8 616.5s-69-363.8 234.4-224.1c308.6-151.9 234.4 224.1 234.4 224.1l55.8-20.9s9.9-52.2 9.9-79.7c0-172.4-134.3-312.2-300-312.2s-300 139.8-300 312.2c0 27.6 3.4 54.3 9.9 79.7l55.6 20.9z" fill="#A37454" p-id="3726"></path><path d="M741.9 624.3l1.7-8.8c0.1-0.4 8.7-45 7.6-96.3-1-46.7-10.5-108.7-50-138.9-39.2-30.1-101.4-24.5-184.9 16.6l-2.1 1.1-2.2-1c-82.3-37.9-143.9-41.6-183-11-39.2 30.6-49.3 91.1-50.8 136.4-1.7 49.8 6.3 92.8 6.4 93.2l1.7 8.7-66.5-24.9-0.6-2.5c-6.7-26.3-10-53.5-10-81 0-84.7 31.7-164.3 89.3-224.2 57.6-60 134.2-93 215.7-93s158.1 33 215.7 93c57.6 59.9 89.3 139.5 89.3 224.2 0 27.7-9.6 78.5-10 80.7l-0.5 2.8-66.8 24.9z m-513.7-32.4l45.2 16.9c-2.3-15.3-6.4-49-5.2-86.6 1-30 5.2-56.6 12.4-79.1 9.2-28.5 23.4-50.4 42.2-65.1 42-32.8 106.3-29.9 191.2 8.8 86.1-41.9 151.1-46.8 193.2-14.5 19 14.6 33.2 36.7 42.2 65.8 7.1 22.9 11 50.2 11.7 81.1 0.8 38.8-3.8 73.9-6.3 89.6l44.9-16.8c2-11.1 9.3-52.8 9.3-76 0-169.4-132.3-307.2-295-307.2S219 346.6 219 516c0.2 25.7 3.2 51.2 9.2 75.9z" fill="" p-id="3727"></path><path d="M262.4 584.3a57.5 21.3 0 1 0 115 0 57.5 21.3 0 1 0-115 0Z" fill="#FFD4DC" p-id="3728"></path><path d="M650.9 582.9a57.5 21.3 0 1 0 115 0 57.5 21.3 0 1 0-115 0Z" fill="#FFD4DC" p-id="3729"></path><path d="M363.2 519.8m-55 0a55 55 0 1 0 110 0 55 55 0 1 0-110 0Z" fill="" p-id="3730"></path><path d="M363.2 576.3c-31.2 0-56.5-25.3-56.5-56.5s25.3-56.5 56.5-56.5 56.5 25.3 56.5 56.5-25.4 56.5-56.5 56.5z m0-110c-29.5 0-53.5 24-53.5 53.5s24 53.5 53.5 53.5 53.5-24 53.5-53.5-24-53.5-53.5-53.5z" fill="" p-id="3731"></path><path d="M339.4 504.6m-15.2 0a15.2 15.2 0 1 0 30.4 0 15.2 15.2 0 1 0-30.4 0Z" fill="#FFFFFF" p-id="3732"></path><path d="M402.3 537.4c2.4 4.2-1.2 14.8-13.9 22.3-12.7 7.5-26.4 6.4-28.9 2.3s9.7-1.6 22.5-9c12.8-7.6 17.9-19.8 20.3-15.6z" fill="#565656" p-id="3733"></path><path d="M664.9 519.8m-55 0a55 55 0 1 0 110 0 55 55 0 1 0-110 0Z" fill="" p-id="3734"></path><path d="M664.9 576.3c-31.2 0-56.5-25.3-56.5-56.5s25.3-56.5 56.5-56.5 56.5 25.3 56.5 56.5-25.3 56.5-56.5 56.5z m0-110c-29.5 0-53.5 24-53.5 53.5s24 53.5 53.5 53.5 53.5-24 53.5-53.5-24-53.5-53.5-53.5z" fill="" p-id="3735"></path><path d="M641.2 504.6m-15.2 0a15.2 15.2 0 1 0 30.4 0 15.2 15.2 0 1 0-30.4 0Z" fill="#FFFFFF" p-id="3736"></path><path d="M704.1 537.4c2.4 4.2-1.2 14.8-13.9 22.3s-26.4 6.4-28.9 2.3 9.7-1.6 22.5-9c12.7-7.6 17.8-19.8 20.3-15.6z" fill="#565656" p-id="3737"></path></svg>